<svg xmlns="http://www.w3.org/2000/svg" width="35" height="42" viewBox="0 0 65 78" fill="none">
  <path d="M19.9042 18.1237C19.6472 17.5203 19.2208 17.0044 18.6767 16.6384C18.1326 16.2724 17.494 16.072 16.8383 16.0616H5.98589C5.70085 16.0454 5.41612 16.0986 5.15621 16.2168C4.89628 16.3349 4.66894 16.5145 4.49369 16.7399C4.34866 16.9965 4.27243 17.2863 4.27243 17.581C4.27243 17.8758 4.34866 18.1656 4.49369 18.4222L11.9005 31.2564L0.234108 51.8508C0.0809475 52.1047 0 52.3955 0 52.6919C0 52.9884 0.0809475 53.2792 0.234108 53.5331C0.379675 53.7744 0.587405 53.9724 0.835585 54.1059C1.08376 54.2396 1.36328 54.304 1.64492 54.2927H12.4973C13.1477 54.2724 13.7777 54.0609 14.3085 53.6844C14.8393 53.308 15.2474 52.7835 15.4818 52.1764L27.3109 31.2564L19.9042 18.1237Z" fill="white"/>
  <path d="M64.7846 3.16976C64.926 2.90988 65 2.61889 65 2.32322C65 2.02754 64.926 1.73655 64.7846 1.47666C64.6229 1.2455 64.405 1.05909 64.1512 0.934911C63.8974 0.81073 63.6164 0.752834 63.334 0.766649H52.1676C51.5214 0.78486 50.8953 0.994545 50.3689 1.36901C49.8424 1.74346 49.4398 2.26576 49.2117 2.86938C49.2117 2.86938 25.4008 45.0059 24.5798 46.3714L40.2896 75.1268C40.5456 75.733 40.9704 76.2533 41.5136 76.626C42.057 76.9986 42.6959 77.2081 43.3548 77.2295H54.3024C54.5899 77.2537 54.8786 77.2006 55.1384 77.0757C55.3983 76.9509 55.62 76.7587 55.7804 76.5196C55.9293 76.2623 56.0077 75.9703 56.0077 75.6729C56.0077 75.3758 55.9293 75.0838 55.7804 74.8264L40.2074 46.426L64.7846 3.16976Z" fill="url(#paint0_linear_68_376)"/>
  <defs>
    <linearGradient id="paint0_linear_68_376" x1="24.5798" y1="37.9088" x2="65" y2="37.9088" gradientUnits="userSpaceOnUse">
      <stop offset="0.208333" stop-color="#875DFF"/>
      <stop offset="1" stop-color="#4A4ED5"/>
    </linearGradient>
  </defs>
</svg>